<svg xmlns="http://www.w3.org/2000/svg" width="24" height="24"><path fill="#fff" d="M17.249 24a6.687 6.687 0 01-2.294-.41 24.462 24.462 0 01-8.883-5.662A24.461 24.461 0 01.41 9.045a6.638 6.638 0 01-.338-3.263A6.807 6.807 0 013.57.8a6.683 6.683 0 013.2-.8.75.75 0 01.73.593l1.18 5.493a.75.75 0 01-.2.687L6.466 8.785a19.741 19.741 0 008.749 8.749l2.011-2.011a.75.75 0 01.687-.2l5.495 1.177a.75.75 0 01.592.73 6.683 6.683 0 01-.8 3.2 6.807 6.807 0 01-4.983 3.5 6.671 6.671 0 01-.968.07zM6.171 1.533a5.255 5.255 0 00-4.351 7A22.748 22.748 0 0015.467 22.18a5.255 5.255 0 007-4.351L18 16.872l-2.1 2.1a.75.75 0 01-.849.148A21.236 21.236 0 014.879 8.952a.75.75 0 01.149-.852l2.1-2.1z"/></svg>