<svg xmlns="http://www.w3.org/2000/svg" width="30" height="30"><g transform="translate(6 6)"><circle cx="15" cy="15" r="15" fill="#131315" transform="translate(-6 -6)"/><path fill="#fcfcfd" d="M12.937 18a5.015 5.015 0 01-1.721-.307 18.347 18.347 0 01-6.662-4.247A18.345 18.345 0 01.308 6.784a4.979 4.979 0 01-.254-2.447A5.105 5.105 0 012.678.6a5.012 5.012 0 012.4-.6.563.563 0 01.55.445l.883 4.12a.563.563 0 01-.152.516L4.85 6.589a14.806 14.806 0 006.562 6.562l1.509-1.509a.563.563 0 01.516-.152l4.12.883a.562.562 0 01.445.55 5.012 5.012 0 01-.6 2.4 5.105 5.105 0 01-3.737 2.624 5 5 0 01-.728.053zM4.628 1.15A3.941 3.941 0 001.365 6.4 17.061 17.061 0 0011.6 16.635a3.941 3.941 0 005.25-3.263l-3.35-.718-1.576 1.576a.562.562 0 01-.637.111A15.927 15.927 0 013.66 6.714a.562.562 0 01.111-.637L5.346 4.5z"/></g></svg>