<svg xmlns="http://www.w3.org/2000/svg" width="30" height="30"><g transform="translate(223 -53)"><circle cx="15" cy="15" r="15" fill="#131315" transform="translate(-223 53)"/><path fill="#fff" d="M-200.582 61h-14.836A1.585 1.585 0 00-217 62.582v10.547a1.585 1.585 0 001.582 1.582h14.836A1.585 1.585 0 00-199 73.129V62.582A1.585 1.585 0 00-200.582 61zm-.218 1.055l-7.166 7.166-7.228-7.166zm-15.145 10.856V62.8l5.079 5.036zm.746.746l5.083-5.083 1.781 1.766a.527.527 0 00.744 0l1.736-1.74 5.055 5.056zm15.145-.746l-5.056-5.056 5.055-5.055z"/></g></svg>