<svg xmlns="http://www.w3.org/2000/svg" width="15.01" height="24"><defs><style>.cls-1{fill:#c1ac69}</style></defs><g id="_003-location" transform="translate(-95.898)"><path id="Path_10" d="M176 85.281a3.934 3.934 0 10-3.934-3.934A3.939 3.939 0 00176 85.281zm0-6.461a2.528 2.528 0 11-2.528 2.528A2.531 2.531 0 01176 78.819z" class="cls-1" transform="translate(-72.599 -73.784)"/><path id="Path_11" d="M99.119 14.631c1.066 1.443.638.882 3.707 5.264a.7.7 0 001.153 0c3.083-4.4 2.659-3.846 3.708-5.265a17.89 17.89 0 002.762-4.667 7.263 7.263 0 00-1.06-7.026 7.566 7.566 0 00-11.971 0 7.263 7.263 0 00-1.06 7.026 17.888 17.888 0 002.761 4.668zM98.53 3.8a6.16 6.16 0 019.747 0 5.9 5.9 0 01.843 5.707 16.847 16.847 0 01-2.564 4.29c-.778 1.053-.545.731-3.153 4.469-2.6-3.734-2.375-3.416-3.153-4.469a16.848 16.848 0 01-2.564-4.29A5.9 5.9 0 0198.53 3.8z" class="cls-1"/><path id="Path_12" d="M109.905 370.5a.7.7 0 00-.97-.219l-2 1.263a.7.7 0 000 1.189l6.3 3.979a.7.7 0 00.751 0l6.3-3.979a.7.7 0 000-1.189l-2-1.263a.7.7 0 10-.751 1.189l1.058.668-4.983 3.148-4.983-3.148 1.058-.668a.7.7 0 00.22-.97z" class="cls-1" transform="translate(-10.208 -352.825)"/></g></svg>